<?xml version="1.0" encoding="UTF-8"?>
<svg id="Ebene_2" data-name="Ebene 2" xmlns="http://www.w3.org/2000/svg" viewBox="0 0 45.05 45.05">
  <defs>
    <style>
      .cls-1 {
        stroke: #fff;
        stroke-width: .25px;
      }

      .cls-1, .cls-2 {
        stroke-miterlimit: 10;
      }

      .cls-2 {
        fill: #fff;
        stroke: #000;
        stroke-width: 1.06px;
      }
    </style>
  </defs>
  <g id="Ebene_4" data-name="Ebene 4">
    <g>
      <circle class="cls-2" cx="22.53" cy="22.53" r="22"/>
      <path class="cls-1" d="M22.52,9.24c-4.19,0-7.58,3.48-7.58,7.74,0,.2.08.4.22.54.14.14.34.23.54.23.21,0,.4-.08.54-.22.14-.14.23-.34.22-.54,0-3.45,2.71-6.21,6.05-6.21s6.06,2.76,6.06,6.21c0,2.48-1.41,4.6-3.43,5.6-1.67.82-3.39,2.36-3.39,4.52v1.77c0,.42.34.76.76.76.2,0,.4-.08.54-.22.14-.14.23-.34.23-.54v-1.77c0-1.31,1.18-2.48,2.54-3.15,2.54-1.26,4.28-3.92,4.28-6.97,0-4.26-3.4-7.74-7.59-7.74h0ZM22.53,31.96c-.61,0-1.11.51-1.11,1.14s.5,1.14,1.11,1.14,1.12-.51,1.12-1.14-.5-1.14-1.12-1.14Z"/>
    </g>
  </g>
</svg>